# xmcd
#
# Track frame offsets: 
#        150
#        12780
#        24819
#        35836
#        47587
#        58129
#        73339
#        85278
#        98354
#        108362
#        121988
#        133227
#        144000
#        156460
#        167055
#        178306
#        191708
#        206069
#        218176
#        235593
#
# Disc length: 3291 seconds
#
# Revision: 0
# Processed by: cddbd v1.5.2PL0 Copyright (c) Steve Scherf et al.
# Submitted via: ExactAudioCopy v1.0b3
#
DISCID=1c0cd914
DTITLE=John Lee Hooker - The Vee-Jay Singles Collection - CD2
DYEAR=2013
DGENRE=Blues
TTITLE0=Hobo Blues
TTITLE1=Crawlin' Kingsnake
TTITLE2=No Shoes
TTITLE3=Solid Sender
TTITLE4=Dusty Road
TTITLE5=Tupelo
TTITLE6=I'm Mad Again
TTITLE7=I'm Going Upstairs
TTITLE8=Want Ad Blues
TTITLE9=Take Me As I Am
TTITLE10=Boom Boom
TTITLE11=Let's Make It
TTITLE12=Drug Store Woman
TTITLE13=She's Mine
TTITLE14=A New Leaf
TTITLE15=Whiskey And Wimmen' (bonus track)
TTITLE16=The Hobo (bonus track)
TTITLE17=I'll Know Tonight (bonus track)
TTITLE18=Blues Before Sunrise (bonus track)
TTITLE19=Goin' To California (bonus track)
EXTD=
EXTT0=
EXTT1=
EXTT2=
EXTT3=
EXTT4=
EXTT5=
EXTT6=
EXTT7=
EXTT8=
EXTT9=
EXTT10=
EXTT11=
EXTT12=
EXTT13=
EXTT14=
EXTT15=
EXTT16=
EXTT17=
EXTT18=
EXTT19=
PLAYORDER=
